<?xml version="1.0" encoding="utf-8" standalone="no"?>
<!DOCTYPE svg PUBLIC "-//W3C//DTD SVG 1.1//EN"
  "http://www.w3.org/Graphics/SVG/1.1/DTD/svg11.dtd">
<svg xmlns:xlink="http://www.w3.org/1999/xlink" width="1215.36pt" height="360pt" viewBox="0 0 1215.36 360" xmlns="http://www.w3.org/2000/svg" version="1.1">
 <metadata>
  <rdf:RDF xmlns:dc="http://purl.org/dc/elements/1.1/" xmlns:cc="http://creativecommons.org/ns#" xmlns:rdf="http://www.w3.org/1999/02/22-rdf-syntax-ns#">
   <cc:Work>
    <dc:type rdf:resource="http://purl.org/dc/dcmitype/StillImage"/>
    <dc:date>2026-09-29T01:38:11.908214</dc:date>
    <dc:format>image/svg+xml</dc:format>
    <dc:creator>
     <cc:Agent>
      <dc:title>Matplotlib v3.11.1, https://matplotlib.org/</dc:title>
     </cc:Agent>
    </dc:creator>
   </cc:Work>
  </rdf:RDF>
 </metadata>
 <defs>
  <style type="text/css">*{stroke-linejoin: round; stroke-linecap: butt}</style>
 </defs>
 <g id="figure_1">
  <g id="patch_1">
   <path d="M 0 360 
L 1215.36 360 
L 1215.36 0 
L 0 0 
z
" style="fill: #ffffff"/>
  </g>
  <g id="axes_1">
   <g id="patch_2">
    <path d="M 63.19872 306 
L 1199.56032 306 
L 1199.56032 82.8 
L 63.19872 82.8 
z
" style="fill: #ffffff"/>
   </g>
   <g id="matplotlib.axis_1">
    <g id="xtick_1">
     <g id="line2d_1"/>
     <g id="text_1">
      <text style="font-size: 19px; font-family: 'Arial'; text-anchor: middle; fill: #5a564e" x="63.19872" y="331.83252" transform="rotate(-0 63.19872 331.83252)">1 янв.</text>
     </g>
    </g>
    <g id="xtick_2">
     <g id="line2d_2"/>
     <g id="text_2">
      <text style="font-size: 19px; font-family: 'Arial'; text-anchor: middle; fill: #5a564e" x="306.704777" y="331.83252" transform="rotate(-0 306.704777 331.83252)">4 янв.</text>
     </g>
    </g>
    <g id="xtick_3">
     <g id="line2d_3"/>
     <g id="text_3">
      <text style="font-size: 19px; font-family: 'Arial'; text-anchor: middle; fill: #5a564e" x="550.210834" y="331.83252" transform="rotate(-0 550.210834 331.83252)">7 янв.</text>
     </g>
    </g>
    <g id="xtick_4">
     <g id="line2d_4"/>
     <g id="text_4">
      <text style="font-size: 19px; font-family: 'Arial'; text-anchor: middle; fill: #5a564e" x="793.716891" y="331.83252" transform="rotate(-0 793.716891 331.83252)">10 янв.</text>
     </g>
    </g>
    <g id="xtick_5">
     <g id="line2d_5"/>
     <g id="text_5">
      <text style="font-size: 19px; font-family: 'Arial'; text-anchor: middle; fill: #5a564e" x="1118.391634" y="331.83252" transform="rotate(-0 1118.391634 331.83252)">14 янв.</text>
     </g>
    </g>
   </g>
   <g id="matplotlib.axis_2">
    <g id="ytick_1">
     <g id="line2d_6">
      <path d="M 63.19872 306 
L 1199.56032 306 
" clip-path="url(#p75255e03a7)" style="fill: none; stroke: #e5e2da; stroke-linecap: square"/>
     </g>
     <g id="line2d_7"/>
     <g id="text_6">
      <text style="font-size: 19px; font-family: 'Arial'; text-anchor: end; fill: #5a564e" x="51.19872" y="312.91626" transform="rotate(-0 51.19872 312.91626)">0</text>
     </g>
    </g>
    <g id="ytick_2">
     <g id="line2d_8">
      <path d="M 63.19872 231.6 
L 1199.56032 231.6 
" clip-path="url(#p75255e03a7)" style="fill: none; stroke: #e5e2da; stroke-linecap: square"/>
     </g>
     <g id="line2d_9"/>
     <g id="text_7">
      <text style="font-size: 19px; font-family: 'Arial'; text-anchor: end; fill: #5a564e" x="51.19872" y="238.51626" transform="rotate(-0 51.19872 238.51626)">5</text>
     </g>
    </g>
    <g id="ytick_3">
     <g id="line2d_10">
      <path d="M 63.19872 157.2 
L 1199.56032 157.2 
" clip-path="url(#p75255e03a7)" style="fill: none; stroke: #e5e2da; stroke-linecap: square"/>
     </g>
     <g id="line2d_11"/>
     <g id="text_8">
      <text style="font-size: 19px; font-family: 'Arial'; text-anchor: end; fill: #5a564e" x="51.19872" y="164.11626" transform="rotate(-0 51.19872 164.11626)">10</text>
     </g>
    </g>
    <g id="ytick_4">
     <g id="line2d_12">
      <path d="M 63.19872 82.8 
L 1199.56032 82.8 
" clip-path="url(#p75255e03a7)" style="fill: none; stroke: #e5e2da; stroke-linecap: square"/>
     </g>
     <g id="line2d_13"/>
     <g id="text_9">
      <text style="font-size: 19px; font-family: 'Arial'; text-anchor: end; fill: #5a564e" x="51.19872" y="89.71626" transform="rotate(-0 51.19872 89.71626)">15</text>
     </g>
    </g>
   </g>
   <g id="line2d_14">
    <path d="M 97.019006 189.621567 
L 178.187691 200.606625 
L 259.356377 200.196883 
L 276.167877 212.429521 
L 340.525063 212.452226 
L 367.581291 208.898768 
L 421.693749 218.449942 
L 462.278091 216.932896 
L 502.862434 184.592243 
L 523.154606 210.999051 
L 584.03112 228.879846 
L 665.199806 202.189218 
L 773.42472 197.807003 
M 827.537177 250.22361 
L 908.705863 197.31883 
L 989.874549 187.1904 
L 1010.16672 212.111628 
L 1071.043234 234.351941 
L 1111.627577 216.888883 
L 1152.21192 188.375193 
" clip-path="url(#p75255e03a7)" style="fill: none; stroke-dasharray: 13,10.4; stroke-dashoffset: 0; stroke: #969185; stroke-width: 2.6"/>
   </g>
   <g id="patch_3">
    <path d="M 63.19872 306 
L 1199.56032 306 
" style="fill: none; stroke: #d3cfc4; stroke-width: 0.8; stroke-linejoin: miter; stroke-linecap: square"/>
   </g>
   <g id="line2d_15">
    <path d="M 97.019006 173.810922 
L 178.187691 184.18435 
L 259.356377 182.480444 
L 276.167877 194.713082 
L 340.525063 192.356554 
L 367.581291 186.265319 
L 421.693749 193.175238 
L 462.278091 190.471816 
L 502.862434 158.131164 
L 523.154606 180.928531 
L 584.03112 193.906296 
L 665.199806 167.215668 
L 773.42472 162.833453 
M 827.537177 213.436679 
L 908.705863 162.345279 
L 989.874549 156.434676 
L 1010.16672 177.138078 
L 1071.043234 197.56501 
L 1111.627577 180.101952 
L 1152.21192 151.588263 
" clip-path="url(#p75255e03a7)" style="fill: none; stroke: #c8761a; stroke-width: 3; stroke-linecap: square"/>
    <defs>
     <path id="m1a463f3826" d="M 0 2.25 
C 0.596707 2.25 1.169055 2.012926 1.59099 1.59099 
C 2.012926 1.169055 2.25 0.596707 2.25 0 
C 2.25 -0.596707 2.012926 -1.169055 1.59099 -1.59099 
C 1.169055 -2.012926 0.596707 -2.25 0 -2.25 
C -0.596707 -2.25 -1.169055 -2.012926 -1.59099 -1.59099 
C -2.012926 -1.169055 -2.25 -0.596707 -2.25 0 
C -2.25 0.596707 -2.012926 1.169055 -1.59099 1.59099 
C -1.169055 2.012926 -0.596707 2.25 0 2.25 
z
" style="stroke: #c8761a"/>
    </defs>
    <g clip-path="url(#p75255e03a7)">
     <use xlink:href="#m1a463f3826" x="97.019006" y="173.810922" style="fill: #c8761a; stroke: #c8761a"/>
     <use xlink:href="#m1a463f3826" x="178.187691" y="184.18435" style="fill: #c8761a; stroke: #c8761a"/>
     <use xlink:href="#m1a463f3826" x="259.356377" y="182.480444" style="fill: #c8761a; stroke: #c8761a"/>
     <use xlink:href="#m1a463f3826" x="276.167877" y="194.713082" style="fill: #c8761a; stroke: #c8761a"/>
     <use xlink:href="#m1a463f3826" x="340.525063" y="192.356554" style="fill: #c8761a; stroke: #c8761a"/>
     <use xlink:href="#m1a463f3826" x="367.581291" y="186.265319" style="fill: #c8761a; stroke: #c8761a"/>
     <use xlink:href="#m1a463f3826" x="421.693749" y="193.175238" style="fill: #c8761a; stroke: #c8761a"/>
     <use xlink:href="#m1a463f3826" x="462.278091" y="190.471816" style="fill: #c8761a; stroke: #c8761a"/>
     <use xlink:href="#m1a463f3826" x="502.862434" y="158.131164" style="fill: #c8761a; stroke: #c8761a"/>
     <use xlink:href="#m1a463f3826" x="523.154606" y="180.928531" style="fill: #c8761a; stroke: #c8761a"/>
     <use xlink:href="#m1a463f3826" x="584.03112" y="193.906296" style="fill: #c8761a; stroke: #c8761a"/>
     <use xlink:href="#m1a463f3826" x="665.199806" y="167.215668" style="fill: #c8761a; stroke: #c8761a"/>
     <use xlink:href="#m1a463f3826" x="773.42472" y="162.833453" style="fill: #c8761a; stroke: #c8761a"/>
     <use xlink:href="#m1a463f3826" x="827.537177" y="213.436679" style="fill: #c8761a; stroke: #c8761a"/>
     <use xlink:href="#m1a463f3826" x="908.705863" y="162.345279" style="fill: #c8761a; stroke: #c8761a"/>
     <use xlink:href="#m1a463f3826" x="989.874549" y="156.434676" style="fill: #c8761a; stroke: #c8761a"/>
     <use xlink:href="#m1a463f3826" x="1010.16672" y="177.138078" style="fill: #c8761a; stroke: #c8761a"/>
     <use xlink:href="#m1a463f3826" x="1071.043234" y="197.56501" style="fill: #c8761a; stroke: #c8761a"/>
     <use xlink:href="#m1a463f3826" x="1111.627577" y="180.101952" style="fill: #c8761a; stroke: #c8761a"/>
     <use xlink:href="#m1a463f3826" x="1152.21192" y="151.588263" style="fill: #c8761a; stroke: #c8761a"/>
    </g>
   </g>
   <g id="text_10">
    <text style="font-size: 20px; font-family: 'Arial'; text-anchor: start; fill: #5a564e" x="12.062448" y="66.06" transform="rotate(-0 12.062448 66.06)">мг/кг</text>
   </g>
   <g id="patch_4">
    <path d="M 704.906211 271.224046 
Q 743.242238 273.668497 781.578264 276.112948 
" style="fill: none; stroke: #8f8974; stroke-width: 1.2; stroke-linecap: round"/>
   </g>
   <g id="text_11">
    <text style="font-size: 17px; font-family: 'Arial'; text-anchor: middle; fill: #5a564e" x="621.233434" y="270.288" transform="rotate(-0 621.233434 270.288)">Прогноз недоступен</text>
   </g>
   <g id="line2d_16">
    <path d="M 97.019006 173.568006 
L 178.187691 170.591994 
L 259.356377 148.271994 
L 276.167877 176.544003 
L 340.525063 185.471994 
L 367.581291 204.815997 
L 421.693749 188.447999 
L 462.278091 178.031994 
L 502.862434 149.76 
L 523.154606 173.568006 
L 584.03112 200.352001 
L 665.199806 183.984003 
L 773.42472 112.56 
L 783.570806 276.24 
L 827.537177 207.792001 
L 908.705863 175.055997 
L 989.874549 127.44 
L 1010.16672 160.175997 
L 1071.043234 172.08 
L 1111.627577 140.831994 
L 1152.21192 173.568006 
" clip-path="url(#p75255e03a7)" style="fill: none; stroke: #322d2a; stroke-width: 2.7; stroke-linecap: square"/>
    <defs>
     <path id="mab37297f04" d="M 0 3 
C 0.795609 3 1.55874 2.683901 2.12132 2.12132 
C 2.683901 1.55874 3 0.795609 3 0 
C 3 -0.795609 2.683901 -1.55874 2.12132 -2.12132 
C 1.55874 -2.683901 0.795609 -3 0 -3 
C -0.795609 -3 -1.55874 -2.683901 -2.12132 -2.12132 
C -2.683901 -1.55874 -3 -0.795609 -3 0 
C -3 0.795609 -2.683901 1.55874 -2.12132 2.12132 
C -1.55874 2.683901 -0.795609 3 0 3 
z
" style="stroke: #322d2a"/>
    </defs>
    <g clip-path="url(#p75255e03a7)">
     <use xlink:href="#mab37297f04" x="97.019006" y="173.568006" style="fill: #322d2a; stroke: #322d2a"/>
     <use xlink:href="#mab37297f04" x="178.187691" y="170.591994" style="fill: #322d2a; stroke: #322d2a"/>
     <use xlink:href="#mab37297f04" x="259.356377" y="148.271994" style="fill: #322d2a; stroke: #322d2a"/>
     <use xlink:href="#mab37297f04" x="276.167877" y="176.544003" style="fill: #322d2a; stroke: #322d2a"/>
     <use xlink:href="#mab37297f04" x="340.525063" y="185.471994" style="fill: #322d2a; stroke: #322d2a"/>
     <use xlink:href="#mab37297f04" x="367.581291" y="204.815997" style="fill: #322d2a; stroke: #322d2a"/>
     <use xlink:href="#mab37297f04" x="421.693749" y="188.447999" style="fill: #322d2a; stroke: #322d2a"/>
     <use xlink:href="#mab37297f04" x="462.278091" y="178.031994" style="fill: #322d2a; stroke: #322d2a"/>
     <use xlink:href="#mab37297f04" x="502.862434" y="149.76" style="fill: #322d2a; stroke: #322d2a"/>
     <use xlink:href="#mab37297f04" x="523.154606" y="173.568006" style="fill: #322d2a; stroke: #322d2a"/>
     <use xlink:href="#mab37297f04" x="584.03112" y="200.352001" style="fill: #322d2a; stroke: #322d2a"/>
     <use xlink:href="#mab37297f04" x="665.199806" y="183.984003" style="fill: #322d2a; stroke: #322d2a"/>
     <use xlink:href="#mab37297f04" x="773.42472" y="112.56" style="fill: #322d2a; stroke: #322d2a"/>
     <use xlink:href="#mab37297f04" x="783.570806" y="276.24" style="fill: #322d2a; stroke: #322d2a"/>
     <use xlink:href="#mab37297f04" x="827.537177" y="207.792001" style="fill: #322d2a; stroke: #322d2a"/>
     <use xlink:href="#mab37297f04" x="908.705863" y="175.055997" style="fill: #322d2a; stroke: #322d2a"/>
     <use xlink:href="#mab37297f04" x="989.874549" y="127.44" style="fill: #322d2a; stroke: #322d2a"/>
     <use xlink:href="#mab37297f04" x="1010.16672" y="160.175997" style="fill: #322d2a; stroke: #322d2a"/>
     <use xlink:href="#mab37297f04" x="1071.043234" y="172.08" style="fill: #322d2a; stroke: #322d2a"/>
     <use xlink:href="#mab37297f04" x="1111.627577" y="140.831994" style="fill: #322d2a; stroke: #322d2a"/>
     <use xlink:href="#mab37297f04" x="1152.21192" y="173.568006" style="fill: #322d2a; stroke: #322d2a"/>
    </g>
   </g>
   <g id="legend_1">
    <g id="line2d_17">
     <path d="M 71.19872 23.415016 
L 91.19872 23.415016 
L 111.19872 23.415016 
" style="fill: none; stroke: #322d2a; stroke-width: 2.7; stroke-linecap: square"/>
     <g>
      <use xlink:href="#mab37297f04" x="91.19872" y="23.415016" style="fill: #322d2a; stroke: #322d2a"/>
     </g>
    </g>
    <g id="text_12">
     <text style="font-size: 20px; font-family: 'Arial'; text-anchor: start" x="127.19872" y="30.415016" transform="rotate(-0 127.19872 30.415016)">Лабораторный анализ</text>
    </g>
    <g id="line2d_18">
     <path d="M 374.44872 23.415016 
L 394.44872 23.415016 
L 414.44872 23.415016 
" style="fill: none; stroke-dasharray: 13,10.4; stroke-dashoffset: 0; stroke: #969185; stroke-width: 2.6"/>
    </g>
    <g id="text_13">
     <text style="font-size: 20px; font-family: 'Arial'; text-anchor: start" x="430.44872" y="30.415016" transform="rotate(-0 430.44872 30.415016)">ПАК за 2 ч до пробы</text>
    </g>
    <g id="line2d_19">
     <path d="M 661.12372 23.415016 
L 681.12372 23.415016 
L 701.12372 23.415016 
" style="fill: none; stroke: #c8761a; stroke-width: 3; stroke-linecap: square"/>
     <g>
      <use xlink:href="#m1a463f3826" x="681.12372" y="23.415016" style="fill: #c8761a; stroke: #c8761a"/>
     </g>
    </g>
    <g id="text_14">
     <text style="font-size: 20px; font-family: 'Arial'; text-anchor: start" x="717.12372" y="30.415016" transform="rotate(-0 717.12372 30.415016)">Наш прогноз: ПАК + поправка</text>
    </g>
   </g>
  </g>
 </g>
 <defs>
  <clipPath id="p75255e03a7">
   <rect x="63.19872" y="82.8" width="1136.3616" height="223.2"/>
  </clipPath>
 </defs>
</svg>
